<svg version="1" xmlns="http://www.w3.org/2000/svg" width="505.333" height="505.333" viewBox="0 0 379.000000 379.000000"><path d="M20 55.6c0 .5 3.7 7.1 8 14.4.5.8 2.4 4.2 4.3 7.5 1.8 3.3 5.1 8.9 7.2 12.5 2.1 3.6 4.8 8.3 6 10.5 2.2 4 6.2 10.8 13.1 22.7 2.1 3.5 6.3 10.8 9.4 16.3 3.1 5.5 7.6 13.2 9.9 17.2 2.2 4 4.1 7.7 4.1 8.2 0 .5.4 1.1.8 1.3.5.1 4.1 6.1 8.2 13.3 4.1 7.1 9.9 17.5 13 23 3.2 5.5 7.4 12.9 9.5 16.5 2.1 3.6 6.4 11 9.5 16.5 3.1 5.5 7.4 12.9 9.5 16.5 2.1 3.6 6.4 11 9.5 16.5 3.1 5.5 7.6 13.2 9.9 17.2 2.2 4 4.1 7.7 4.1 8.2 0 .5.3 1.1.8 1.3.4.2 5.9 9.3 12.1 20.3 14.5 25.6 19.1 33.4 20.2 34.1 1.2.7 2.8-2 47.9-81.1 3.1-5.5 7.4-12.9 9.5-16.5 2.1-3.6 6.4-11 9.5-16.5 3.1-5.5 7.4-12.9 9.5-16.5 2.1-3.6 6.3-11 9.5-16.5 3.1-5.5 8.9-15.9 13-23 4.1-7.2 7.7-13.2 8.2-13.3.4-.2.8-.8.8-1.3s1.9-4.2 4.1-8.2c2.3-4 6.8-11.7 9.9-17.2 3.1-5.5 7.3-12.8 9.4-16.3 6.9-11.9 10.9-18.7 13.1-22.7 1.2-2.2 3.9-6.9 6-10.5 2.1-3.6 5.4-9.2 7.2-12.5 1.9-3.3 3.8-6.7 4.3-7.5 4.3-7.3 8-13.9 8-14.4 0-.3-76.3-.6-169.5-.6S20 55.3 20 55.6zm300.2 21.6c-1.1 1.8-7.3 12.5-13.8 23.8-33.7 58.9-85.2 148.5-94.7 165-4.9 8.5-11.9 20.8-15.5 27.2-3.7 6.4-6.7 11.6-6.8 11.5-.1-.1-3.8-6.7-8.4-14.7-4.5-8-13.3-23.3-19.5-34-6.2-10.7-20.1-35-31-54-10.9-19-25.9-45.1-33.3-58-7.4-12.9-18.7-32.5-25-43.5-6.3-11-12.3-21.5-13.4-23.3l-2-3.2h265.4l-2 3.2z"/><path d="M174.2 111c-1.5 2.4-.3 5.6 4.6 13.4 1.8 2.7 3 5.1 2.8 5.4-.4.3-13.3-1.6-15.6-2.3-.3-.1-2.4-.5-4.8-1-2.3-.4-4.5-1.2-4.8-1.6-.3-.5-1-.7-1.5-.4-.5.4-.9.1-.9-.6s-.3-1-.6-.6c-.3.3-3.1-.5-6.1-1.9-3.1-1.3-6.2-2.4-6.9-2.4-.8 0-1.4-.4-1.4-.9 0-2-4.1-1.9-5.5.2-1.3 1.9-1.3 2.2.3 3.1.9.5 1.9 1.2 2.2 1.6.6.8 4.7 3.1 10 5.6 1.9.9 3.7 2 4 2.4.3.4 3 1.5 6 2.5 6.2 2.1 5.8 2 12 3 2.4.4 4.7.8 5.1 1.1.3.2 3.4.6 6.9.9 3.5.3 7.5 1.2 9 2 3 1.6 7.9 10.1 7.4 13-.4 2.6-9.9 26.1-12.1 30-.9 1.6-1.6 3.1-1.5 3.2.2.3 0 .8-1.7 6.2-1.7 5.3-1.3 7.6 2.3 14.8 4.1 8 7 11.5 9.1 10.7 2.3-.9 2.8-4.7 1.6-11.7-1.6-9-1.4-17 .5-25.7 2.4-10.4 5.8-21.3 7-21.7.5-.1 2.3 2 3.9 4.8 4.3 7.3 7.4 10.9 9.4 10.9 1.8 0 4.1-3.8 4.1-6.8 0-1.5-5.9-9.8-7.9-11.2-.4-.3-2-2.6-3.5-5.3-1.5-2.6-3.1-4.7-3.5-4.7-.4 0-1.7-1.8-3-4l-2.2-4h4c3 0 4.6.6 5.9 2.1.9 1.2 2.3 2.7 3 3.4.6.8 1.2 1.6 1.2 1.9 0 .3.7 1.4 1.5 2.3.8 1 3.1 3.7 5.1 6.1 4.1 4.7 5.4 4.9 6.5.9.9-3.2-1-7.4-4.6-10.9-1.4-1.3-2.5-2.8-2.5-3.5 0-.6-1-1.9-2.2-2.7-2.8-2-2.3-2.4 3.2-2.7 2.5-.1 5-.6 5.5-.9.6-.4 4.4-1.5 8.5-2.5 10-2.4 12.5-4.9 11.5-11.3-.4-2.6-.9-4.9-1.1-5.2-.3-.2-2.6.6-5.2 1.9-9.3 4.6-15.6 6.9-15.8 6 0-.2-.8.2-1.6.9-2.7 2.2-13.8 3.8-13.8 2 0-.5-.4-.7-.8-.4-.5.3-2.2-2-3.8-5-2.2-4.1-3.4-5.4-4.9-5.2-2.7.4-2.2 5 1.1 10 2.3 3.7 2.2 4-1.1 4-7.4 0-7.2.2-12.6-9-4.9-8.4-7.9-12.2-9.6-12.2-.5 0-1.4.9-2.1 2z"/></svg>